<?xml version="1.0" encoding="utf-8"?>
<!-- Generator: Adobe Illustrator 24.2.0, SVG Export Plug-In . SVG Version: 6.00 Build 0)  -->
<svg version="1.1" id="Strich" xmlns="http://www.w3.org/2000/svg" xmlns:xlink="http://www.w3.org/1999/xlink" x="0px" y="0px"
	 viewBox="0 0 541.27 123.39" style="enable-background:new 0 0 541.27 123.39;" xml:space="preserve">
<style type="text/css">
	.st0{fill:#706F6F;}
	.st1{fill:#E52421;}
	.st2{fill:none;}
	.st3{fill:none;stroke:#E52421;stroke-width:8;stroke-miterlimit:10;}
</style>
<rect x="-853.4" y="442.68" class="st2" width="1.5" height="3"/>
<path class="st0" d="M-858.88,518.09l9.35-53.07c-0.27,0.28-0.69,0.28-1.24,0.28c-1.24,0-2.34-1.65-1.79-5.22
	c0.82-4.67,3.02-6.87,5.36-7.7l0.41-2.89c-0.28-0.96-0.41-2.61-0.14-3.99c0.69-3.99,4.67-6.46,8.52-6.46c3.85,0,6.32,3.3,4.12,7.97
	l-0.27,1.38c11.69-5.22,22.27-7.7,32.58-7.7c10.17,0,16.64,5.22,15.12,14.3c-2.47,13.89-18.7,25.16-45.37,29.97l35.47,32.17
	c4.54-1.79,7.84,2.2,7.29,5.5c-0.96,5.36-5.22,8.11-9.07,8.11c-2.34,0-4.54-1.24-5.22-3.71l-38.5-35.2l-4.67,26.81
	c0.14,0.83,0.69,2.61,0.41,4.26c-0.96,5.36-5.64,6.87-10.04,6.87c-4.26,0-5.22-3.57-4.67-7.29
	C-860.94,521.12-859.56,519.19-858.88,518.09z M-839.77,478.22c20.62-4.54,38.08-11.41,39.87-21.31c0.69-3.3-2.2-5.36-7.29-5.36
	c-7.15,0-17.46,1.92-29.15,7.42L-839.77,478.22z"/>
<path class="st1" d="M114.21,82.01c-2.15,0.14-1.83-1.75-1.83-1.75s1.6-18.77,0.93-19.75c-0.67-0.99-2.5,2.5-2.5,2.5
	c3.39-11.29,0.84-17.84-10.82-18.39c-4.44-0.21-9.45,2.02-13.95,4.85c-0.62,0.48-1.35,0.97-2.21,1.49c-0.11,0.06-0.21,0.13-0.32,0.2
	c-2.55,1.8-4.85,3.68-6.65,5.27c-3.89,3.91-6.4,8.16-7.92,11.46c-2.26,5.94-3.61,14.01,2.59,19.16c0,0,10.58,8.24,26.31-11.77
	l-0.28,5.95c0,0,0.35,12.89,16.48,4.59C116.58,84.51,114.21,82.01,114.21,82.01z M98.69,67.15c0,0-7.82,9-12.07,8.08
	c-4.25-0.92-2.79-11.58,3.74-18.66c0,0,5.81-6.88,8.87-1.01c0,0,1.26,3.6-4.47,8.83C94.77,64.39,92.02,67.01,98.69,67.15z"/>
<path class="st1" d="M426.23,63.04c-0.85-0.85-2-1.49-3.5-1.87c-2.01-0.74-4.42-1.31-6.76-1.86c-3.12-0.73-4.74-2.24-5.56-3.43
	c-0.7-1.75-1.2-4.29,0.23-6.64c2.51-4.13,10.03-8.56,8.15-0.59c0,0-2.51,8.55,0,8.55c2.51,0,14.73-5.01,9.4-14.16
	c0,0-3.28-6.85-15.21-4.05c-2.89,0.84-5.34,1.96-7.29,3.07c-4.74,3.15-13.5,10.37-9.03,18.29c0.92,1.07,2.42,2.62,4.42,4.03
	c2.27,1.08,5.97,2.78,8.62,3.74c4.08,1.47,2.82,5.01,2.82,5.01c-1.88,5.31-6.27,5.9-8.15,5.9c-1.88,0,0-4.43,0-4.43
	c0.85-1.93,0.49-3.33-0.01-4.21c-0.66-0.73-1.78-0.95-2.75-0.98c-7.75,1.01-8.84,8.44-8.84,8.44c-2.51,8.85,13.48,7.08,13.48,7.08
	c14.42,0,21-12.69,21-12.69c1.08-2.71,1.22-5.62,0.02-7.82C427.06,63.91,426.71,63.45,426.23,63.04z"/>
<path class="st1" d="M535.33,45.86c3.13-6.35-4.39-6.35-4.39-6.35s-13.17,0-19.44,0.32c-6.27,0.32-9.09,6.67-9.71,9.85
	c-0.63,3.18,8.46,3.81,11.6,0.95c2.02-1.84,6.37-1.71,9.21-1.38L499.9,74.77c0,0-3.45,4.76,2.51,7.62c0.21,0.1,0.41,0.19,0.61,0.28
	c1.74,0.68,4.21,1.42,7.4,1.86c0.28,0,0.53,0.02,0.76,0.08c0,0,0.08,0.02,0.2,0.04c2.75,0.32,6,0.41,9.76,0.08
	c0.04,0,0.08,0,0.12-0.01c0.79-0.11,1.61-0.25,2.46-0.43c7.52-1.59,11.28-11.44,11.28-13.03c0-1.59-0.31-4.76-2.19-3.17
	c-1.88,1.59-6.9,3.17-9.72,3.49c-2.82,0.32-2.51-2.22-2.51-2.22S532.19,52.21,535.33,45.86z"/>
<path class="st1" d="M497.03,48.91c-0.94-4.45-1.57-4.45-5.33-4.77c-3.76-0.32-6.58,4.45-6.58,4.45c-2.13,3.18-3.46,7.28-4.3,11.38
	c-1.07,4.06-1.81,8.93-1.53,14.34c-0.25,4.09,0.42,10.03,6.14,10.8c4.39-0.32,6.27-5.08,6.27-5.08
	C496.41,68.6,497.97,53.36,497.03,48.91z"/>
<path class="st1" d="M464.56,40.08c-4.56,0.16-8.95,5.48-12.12,10.54c-0.04-3.81-0.75-9.71-4.81-9.28
	c-5.96,0.64-10.34,10.8-12.85,19.06c-2.51,8.26-6.27,27.63-4.39,34.3c0.66,2.35,1.4,3.56,2.11,4.17c1.32,0.58,3.94,1.28,6.03-0.98
	c1.73-2.69,4.08-8.41,6.91-20.02c0.09-0.39,0.19-0.76,0.28-1.13l0.26,0.23c1.59,3.59,4.24,6.67,8.55,7.58
	c10.66,2.22,20.37-13.34,21-23.19C476.17,51.51,473.34,39.76,464.56,40.08z M456.11,75.21c-0.02,0.02-0.03,0.04-0.04,0.05
	c-1.53,1.69-3.86,1.23-5.42,0.38c-1.57-1.25-1.88-3.26-1.88-4.59c0.01-0.55,0.05-1.04,0.09-1.36c3.85-7.3,7.78-14.4,8.82-15.01
	c2.19-1.27,2.82-0.63,3.45,3.5C461.62,61.48,460.32,71.24,456.11,75.21z"/>
<path class="st1" d="M501.1,27.89c0,0-2.44,9.42-5.93,9.42c-3.49,0-8.02-2.09-7.68-6.98c0.35-4.88,3.84-11.86,7.68-11.16
	C499.01,19.86,502.85,18.81,501.1,27.89z"/>
<path class="st2" d="M383.75,241.16c12.62-4.01,7.63,5.43,7.63,5.43c-0.25,0.28-0.63,0.73-0.88,1c-3.43,4.49-8.12,10.62-9.5,11.5
	c-1.8,1.15-2.91,0.2-2.91,0.2h-0.38c-3.58,12.45-6.59,24.31-6.59,24.31c-3.44,11.47-13.77,12.05-23.52,12.05
	c-9.75,0-6.88-9.76-6.88-9.76s3.34-10.02,8.52-26.45c-0.06,0-0.13,0-0.19,0c-0.09-0.11-0.35-0.16-0.35-0.16s-22.8,0.21-26.46,0
	c-0.46-0.03-0.87-0.14-1.23-0.33c-0.85-0.64-1.7-1.77-2.24-3.77c-0.1-1.09-0.07-2.39,0.16-4c0.18-1.21,0.46-2.53,0.79-3.89
	c4.82-15.01,16.81-48.58,29.33-54.34c4.01-1.12,9.58-2.04,14.01-1.73c14.14-0.35,1.17,13.22,1.17,13.22
	c-8.78,7.8-19.18,30.45-22.12,37.1c0.05,0.59,0.34,1.04,1.19,1.04c0.85,0,5.54,0,11.41,0c1.16-2.96,2.49-5.49,3.92-7.72
	c2.72-5.16,6.53-10.93,10.58-12.31c5.38-1.83,10.62-3.5,14.52-4.09c0.03-0.01,1.11-0.24,1.14-0.25c6.88-2.29,7.52,5.5,2.36,15.25
	L383.75,241.16z"/>
<path class="st1" d="M381.86,46.75c0,0-4.07-1.59-10.66,6.04c0,0,7.21,2.22,6.9,12.07c-0.31,9.84-5.33,11.43-8.46,11.43
	c-3.13,0-7.84,0-7.52-13.02c0.31-13.02,10.65-18.74,15.36-19.69c0,0,5.64-2.54,1.88-2.54c-3.29,0-17.17-1.92-27.08,12.11
	c-1.24,1.97-2.98,5-4.11,8.05c-0.3,1.05-0.55,2.09-0.74,3.1c-1.03,7.07-0.7,20.57,16.88,20.57c0,0,24.14,1.27,26.64-19.69
	C390.95,65.17,392.83,46.75,381.86,46.75z"/>
<path class="st3" d="M272.4,60.83h-5.25c0,0-0.33,0-0.94,0c2.08-6.17,4.04-11.86,5.81-16.82c0.65-2.59,0.88-4.52,0.88-4.52
	c0.67-4.83-5.33-3.25-5.33-3.25s-2.67,0.83-13.08,3.08c-10.42,2.25-16.42,19.08-16.42,19.08s-0.29,0.88-0.79,2.42
	c-5.97,0-10.64,0-11.3,0c-2,0-0.71-2.5-0.71-2.5c6.63-18.63,24.88-40.38,24.88-40.38s8.75-8.25-4.75-8.75s-18,5.38-18,5.38
	c-17,16.75-26.13,56.13-26.13,56.13c-0.38,6.75,5.38,6.5,5.38,6.5h25.33c-4.06,12.61-8.8,27.48-9.58,30.63c-1.42,5.67,6.5,6,6.5,6
	h4.25c0,0,0.83,0.17,9-0.42c5.44-0.39,8.59-5.44,10.08-8.77c2.42-8.07,5.33-17.41,8.55-27.34c0.01-0.03,0.02-0.06,0.03-0.1h1.34
	c2.83-0.13,3.83-1.79,3.83-1.79s5.83-6.92,8.08-10.92S272.4,60.83,272.4,60.83z"/>
<path class="st1" d="M148.19,72.31c-0.65,0.26-1.24,0.65-1.76,1.06c-0.23,0.16-0.46,0.31-0.72,0.5c0,0-7.38,8.34-10.24,3.1
	c-2.86-5.24-2.62-18.1,5.24-23.82c0,0,2.38-0.95,1.91,2.14c-0.48,3.1-3.57,7.38-3.57,7.38s0.24,3.1,4.77,0.24
	c4.53-2.86,7.38-7.15,7.38-11.67c0-4.53-3.1-6.91-6.91-5.96c0,0-18.11,2.62-24.3,24.54c0,0-6.43,18.58,11.67,19.3
	c0,0,13.58-0.24,17.87-15.01C149.53,74.12,151.15,70.87,148.19,72.31z"/>
<path class="st1" d="M188.7,72.03c-0.01-0.02-0.01-0.05-0.02-0.07c-0.32-0.97-1.54-0.68-2.36-0.36c-0.07,0.01-0.12,0.02-0.19,0.04
	c-2.66,0.66-7.54,4.86-11.66,5.61c-0.04,0.01-0.07,0.01-0.11,0.02c-0.15,0.02-0.3,0.05-0.45,0.06c-2.88,0.34-4.14-1.16-4.14-1.16
	l0.54-0.21c0,0,11.75-3.2,16.83-10.25c3.9-4.66,4.17-10.39,3.87-13.9c-0.1-8.66-8.21-8.29-8.21-8.29s-18.34,0-26.68,20.49
	c0,0-1.62,4.53-1.9,9.52c-0.26,2.34-0.29,4.87,0.23,7.17c0.79,4.5,3.5,8.33,10.48,8.33c0,0,11.2,1.09,22.87-11.54
	c0.38-0.41,0.65-1.01,0.83-1.66c0.02-0.05,0.03-0.09,0.04-0.14c0.02-0.06,0.03-0.12,0.04-0.18c0.02-0.08,0.03-0.15,0.04-0.23
	c0.2-1,0.19-2.07,0.01-2.9C188.77,72.25,188.75,72.13,188.7,72.03z M168.1,72c0.5-5.13,2.87-11.08,4.28-14.23
	c1.38-2.45,3.04-4.21,5.02-4.52c0.53,0.04,1.2,0.19,1.66,0.67c0.07,0.07,0.13,0.16,0.19,0.24c0.14,0.21,0.25,0.47,0.3,0.79
	c0,0,0.02,0.18,0.03,0.49l-0.03,0.01c0,0,0.07,1.46-0.42,3.72c-1.46,5.07-2.85,10.02-10.94,13.21
	C168.17,72.26,168.14,72.13,168.1,72z"/>
<path class="st1" d="M345.03,54.1c-0.61-0.25-1.24-0.32-1.24-0.32h-1.57l-0.01,0.03l-1.67-0.03c3.95-11.93,7.13-23.12,7.26-24.38
	c0.1-1.04-0.35-2.25-0.91-3.31c-1.01-1.14-2.71-2.11-5.49-2.52c0,0-5.02-0.98-8.15,5.37c0,0-4.96,12.09-9.55,24.78
	c-4.51,0-11.15,0-15.53,0l7.32-22.57c0.2-0.81,0.3-1.54,0.32-2.19c0-1.22-0.29-2.28-0.74-3.2c-1.06-1.67-3.05-2.14-4.53-2.24
	c-0.17,0.01-0.31,0-0.49,0.02c-1.88,0.21-3.33,0.55-4.47,0.93c-1.21,0.58-2.16,1.39-2.87,2.15c-0.54,0.71-1.1,1.63-1.56,2.47
	l-8.46,24.71c-2.8,0.43-4.6,2.68-7.39,7.22c-2.86,4.65,2.38,4.78,3.3,4.77l-2.98,8.73c0,0-2.35,10.01,2.82,10.48
	c3.48,0.32,6.54-0.45,9.17-2.87c1.73-2.08,2.89-4.75,2.89-4.75l3.7-11.4h15.3c-1.49,4.69-2.66,8.89-3.17,11.87
	c0,0-0.01,0.12-0.02,0.33c-0.19,1.4-0.2,3.36,0.82,4.98c0.05,0.11,0.13,0.19,0.18,0.29c0.16,0.18,0.4,0.4,0.69,0.61
	c0.46,0.38,1.04,0.69,1.79,0.81c0,0,0,0,0.01,0c0.29,0.07,0.6,0.11,0.94,0.13c0.43,0.05,0.82,0.08,1.19,0.09
	c-0.09,0.02-0.19,0.04-0.33,0.06c0.22-0.01,0.42-0.04,0.63-0.05c1.05,0,1.93-0.18,2.88-0.57c2.12-0.76,3.5-2.15,4.8-3.82
	c1.19-1.53,3.12-6.23,4.56-10.02c0.62-1.57,1.25-3.21,1.88-4.91c0.79-0.07,1.86-0.26,2.97-0.66c0.87-0.33,1.84-0.83,2.81-1.57
	c0.31-0.27,0.61-0.55,0.88-0.88c1.48-1.54,2.55-3.37,3.09-5.14C346.72,55.49,345.96,54.54,345.03,54.1z"/>
<path class="st1" d="M60.52,76.36c-6.67-3.33-12.39-10.31-12.39-10.31c0.11-0.05,0.2-0.1,0.31-0.14
	c15.83-5.9,14.95-22.88,14.95-22.88c0.05-6.96-5.94-10.17-10.41-11.59c-10.71-3.76-26.36-1.28-31.44-0.31
	c-1.3,0.61-2.23,1.45-2.89,2.26l-0.68,1.07c-1.69,5.31,2.84,3.84,3.88,3.44C14.63,56.23,7.19,85.1,7.19,85.1
	c-0.03,0.13-0.05,0.25-0.08,0.38c-0.04,1.45,0.36,3.9,3.39,4.47c0.2,0.02,0.41,0.02,0.64,0.02c1.72,0,3.06,0.07,4.27-0.16
	c0.04-0.01,0.08-0.01,0.11-0.02c0.24-0.05,0.48-0.11,0.72-0.19c0.1-0.03,0.2-0.08,0.29-0.12c0.11-0.05,0.22-0.09,0.34-0.15
	c3.52-1.65,5.6-6.52,5.6-6.52c7.49-17.46,11.12-43.18,11.61-46.87c1.51-0.27,4-0.5,6.54,0.1c9.21,2.52,7.19,12.05,7.19,12.05
	C45.6,61.73,36.08,63.73,36.08,63.73s-1.6,0.5-1.01,2.33c0.46,1.44,1.78,10.58,7.66,17.27c5.56,6.87,11.05,6.84,13.36,5.89
	C59.57,87.78,67.19,79.69,60.52,76.36z"/>
</svg>
