<svg height="175.9" viewBox="0 0 237.9 297.9" width="140.5" xmlns="http://www.w3.org/2000/svg">
  <path d="M119 0l119 68.7V206L159 251.6c-38.6 22.3-3.2 44.6-.2 46.4L0 206V68.8L119 0z" fill="#FFFFFE"></path>
  <path d="M119 0l119 68.7V206L159 251.6c-38.6 22.3-3.2 44.6-.2 46.4L0 206V68.8L119 0zm0 44.3L38.4 91v93l80.6 46.4 80.5-46.5V91L119 44.2z" fill="#CC1F2F"></path>
  <path d="M119 230.8v-93L38.4 91.3v93l80.6 46.5" fill="#E3E3E3"></path>
  <path d="M119 230.8v-93l80.5-46.5v93L119 230.8" fill="#F1F1F1"></path>
</svg>